<svg xmlns="http://www.w3.org/2000/svg" style="display:none">
  <symbol id="icon-message" viewBox="0 0 24 24" fill="none" stroke="currentColor" stroke-width="2" stroke-linecap="round" stroke-linejoin="round">
    <path d="M21 11a8 8 0 1 1-3.3-6.4"/><path d="M21 11a8 8 0 0 1-8 8"/><path d="M3 20l3-1 2 2"/>
  </symbol>
  <symbol id="icon-shield" viewBox="0 0 24 24" fill="none" stroke="currentColor" stroke-width="2" stroke-linecap="round" stroke-linejoin="round">
    <path d="M12 2l7 3v5c0 5-3.5 9-7 10-3.5-1-7-5-7-10V5z"/><path d="M9 12l2 2 4-4"/>
  </symbol>
  <symbol id="icon-clock" viewBox="0 0 24 24" fill="none" stroke="currentColor" stroke-width="2" stroke-linecap="round" stroke-linejoin="round">
    <circle cx="12" cy="12" r="9"/><path d="M12 7v5l3 3"/>
  </symbol>
  <symbol id="icon-checkcircle" viewBox="0 0 24 24" fill="none" stroke="currentColor" stroke-width="2" stroke-linecap="round" stroke-linejoin="round">
    <circle cx="12" cy="12" r="9"/><path d="M9 12l2 2 4-4"/>
  </symbol>
  <symbol id="icon-thumbsup" viewBox="0 0 24 24" fill="none" stroke="currentColor" stroke-width="2" stroke-linecap="round" stroke-linejoin="round">
    <path d="M14 9V5a2 2 0 0 0-2-2l-3 7H5a2 2 0 0 0-2 2v5a2 2 0 0 0 2 2h7l5-8a2 2 0 0 0-1.8-3H14z"/>
  </symbol>
  <symbol id="icon-star" viewBox="0 0 24 24" fill="none" stroke="currentColor" stroke-width="2" stroke-linecap="round" stroke-linejoin="round">
    <path d="M12 2l3.1 6.3L22 9.3l-5 4.9 1.2 6.8L12 17l-6.2 4 1.2-6.8-5-4.9 6.9-1z"/>
  </symbol>
  <symbol id="icon-mappin" viewBox="0 0 24 24" fill="none" stroke="currentColor" stroke-width="2" stroke-linecap="round" stroke-linejoin="round">
    <path d="M12 21s7-5.4 7-11a7 7 0 1 0-14 0c0 5.6 7 11 7 11z"/><circle cx="12" cy="10" r="3"/>
  </symbol>
  <symbol id="icon-home" viewBox="0 0 24 24" fill="none" stroke="currentColor" stroke-width="2" stroke-linecap="round" stroke-linejoin="round">
    <path d="M3 11l9-7 9 7"/><path d="M5 10v10h14V10"/>
  </symbol>
  <symbol id="icon-door" viewBox="0 0 24 24" fill="none" stroke="currentColor" stroke-width="2" stroke-linecap="round" stroke-linejoin="round">
    <rect x="6" y="3" width="12" height="18" rx="1"/><path d="M14 3v18"/><circle cx="13" cy="12" r="1"/>
  </symbol>
  <symbol id="icon-brush" viewBox="0 0 24 24" fill="none" stroke="currentColor" stroke-width="2" stroke-linecap="round" stroke-linejoin="round">
    <path d="M2 16h10l2 3H4a2 2 0 0 1-2-3z"/><path d="M12 16l6-9 3 2-6 9z"/>
  </symbol>
  <symbol id="icon-broom" viewBox="0 0 24 24" fill="none" stroke="currentColor" stroke-width="2" stroke-linecap="round" stroke-linejoin="round">
    <path d="M3 20h10l2-4H5z"/><path d="M13 16l6-10"/><path d="M18 5l2 1"/>
  </symbol>
  <symbol id="icon-calendarcheck" viewBox="0 0 24 24" fill="none" stroke="currentColor" stroke-width="2" stroke-linecap="round" stroke-linejoin="round">
    <rect x="3" y="4" width="18" height="16" rx="2"/><path d="M8 2v4"/><path d="M16 2v4"/><path d="M7 11h10"/><path d="M9 15l2 2 4-4"/>
  </symbol>
  <symbol id="icon-bed" viewBox="0 0 24 24" fill="none" stroke="currentColor" stroke-width="2" stroke-linecap="round" stroke-linejoin="round">
    <path d="M3 7h12a4 4 0 0 1 4 4v6H3z"/><path d="M3 7v10"/>
  </symbol>
</svg>
